<svg width="15" height="16" viewBox="0 0 15 16" fill="none" xmlns="http://www.w3.org/2000/svg">
<path d="M14.4115 13.0573C14.0352 12.1591 13.4892 11.3433 12.8038 10.6553C12.1205 9.96524 11.3111 9.41508 10.4202 9.03518C10.4122 9.03116 10.4042 9.02915 10.3963 9.02513C11.6389 8.1206 12.4468 6.64724 12.4468 4.98492C12.4468 2.23116 10.2327 0 7.5 0C4.76731 0 2.55322 2.23116 2.55322 4.98492C2.55322 6.64724 3.36106 8.1206 4.60374 9.02714C4.59576 9.03116 4.58779 9.03317 4.57981 9.03719C3.6862 9.41709 2.88434 9.96181 2.19618 10.6573C1.51143 11.3459 0.965478 12.1615 0.588477 13.0593C0.218111 13.9382 0.0183648 14.8805 4.98787e-05 15.8352C-0.000482508 15.8566 0.00325156 15.878 0.0110322 15.8979C0.0188128 15.9179 0.0304825 15.9361 0.0453536 15.9515C0.0602247 15.9669 0.0779963 15.9791 0.0976214 15.9874C0.117246 15.9957 0.138328 16 0.159623 16H1.35642C1.44419 16 1.514 15.9296 1.516 15.8432C1.55589 14.2915 2.17424 12.8382 3.26732 11.7367C4.39829 10.597 5.90028 9.96985 7.5 9.96985C9.09972 9.96985 10.6017 10.597 11.7327 11.7367C12.8258 12.8382 13.4441 14.2915 13.484 15.8432C13.486 15.9317 13.5558 16 13.6436 16H14.8404C14.8617 16 14.8828 15.9957 14.9024 15.9874C14.922 15.9791 14.9398 15.9669 14.9546 15.9515C14.9695 15.9361 14.9812 15.9179 14.989 15.8979C14.9967 15.878 15.0005 15.8566 15 15.8352C14.98 14.8744 14.7825 13.9397 14.4115 13.0573V13.0573ZM7.5 8.44221C6.58445 8.44221 5.72275 8.08241 5.07448 7.42915C4.42622 6.77588 4.06917 5.90754 4.06917 4.98492C4.06917 4.06231 4.42622 3.19397 5.07448 2.5407C5.72275 1.88744 6.58445 1.52764 7.5 1.52764C8.41555 1.52764 9.27725 1.88744 9.92552 2.5407C10.5738 3.19397 10.9308 4.06231 10.9308 4.98492C10.9308 5.90754 10.5738 6.77588 9.92552 7.42915C9.27725 8.08241 8.41555 8.44221 7.5 8.44221Z" fill="black"/>
</svg>
