<svg width="20" height="20" viewBox="0 0 20 20" fill="none" xmlns="http://www.w3.org/2000/svg">
<path d="M0.808081 5.00003C0.593764 5.00003 0.388226 5.07905 0.236681 5.2197C0.0851368 5.36035 0 5.55112 0 5.75003C0 5.94894 0.0851368 6.13971 0.236681 6.28036C0.388226 6.42101 0.593764 6.50003 0.808081 6.50003H2.60202L4.72242 14.375C4.90263 15.0425 5.54667 15.5 6.28768 15.5H16.3644C17.0941 15.5 17.7139 15.05 17.9055 14.3975L20 7.25003H18.3079L16.3636 14H6.28687L4.16727 6.12503C4.07972 5.80195 3.87788 5.51549 3.59408 5.31152C3.31029 5.10754 2.96095 4.99786 2.60202 5.00003H0.808081ZM15.3535 15.5C14.0242 15.5 12.9293 16.5163 12.9293 17.75C12.9293 18.9838 14.0242 20 15.3535 20C16.6828 20 17.7778 18.9838 17.7778 17.75C17.7778 16.5163 16.6828 15.5 15.3535 15.5ZM8.08081 15.5C6.75152 15.5 5.65657 16.5163 5.65657 17.75C5.65657 18.9838 6.75152 20 8.08081 20C9.4101 20 10.5051 18.9838 10.5051 17.75C10.5051 16.5163 9.4101 15.5 8.08081 15.5ZM10.5051 5.00003V7.25003H8.08081V8.75002H10.5051V11H12.1212V8.75002H14.5455V7.25003H12.1212V5.00003H10.5051ZM8.08081 17C8.53657 17 8.88889 17.327 8.88889 17.75C8.88889 18.173 8.53657 18.5 8.08081 18.5C7.62505 18.5 7.27273 18.173 7.27273 17.75C7.27273 17.327 7.62505 17 8.08081 17ZM15.3535 17C15.8093 17 16.1616 17.327 16.1616 17.75C16.1616 18.173 15.8093 18.5 15.3535 18.5C14.8978 18.5 14.5455 18.173 14.5455 17.75C14.5455 17.327 14.8978 17 15.3535 17Z" fill="black"/>
</svg>
