<svg width="25" height="20" viewBox="0 0 25 20" fill="none" xmlns="http://www.w3.org/2000/svg">
<path d="M1.0101 4.21713e-05C0.742206 4.21713e-05 0.485282 0.105399 0.295852 0.292935C0.106421 0.480471 0 0.734824 0 1.00004C0 1.26526 0.106421 1.51961 0.295852 1.70715C0.485282 1.89468 0.742206 2.00004 1.0101 2.00004H3.25252L5.90303 12.5C6.12828 13.39 6.93333 14 7.8596 14H20.4556C21.3677 14 22.1424 13.4 22.3818 12.53L25 3.00004H22.8848L20.4545 12H7.85859L5.20909 1.50004C5.09964 1.06927 4.84735 0.687319 4.4926 0.415355C4.13786 0.143391 3.70119 -0.00285293 3.25252 4.21713e-05H1.0101ZM19.1919 14C17.5303 14 16.1616 15.355 16.1616 17C16.1616 18.645 17.5303 20 19.1919 20C20.8535 20 22.2222 18.645 22.2222 17C22.2222 15.355 20.8535 14 19.1919 14ZM10.101 14C8.43939 14 7.07071 15.355 7.07071 17C7.07071 18.645 8.43939 20 10.101 20C11.7626 20 13.1313 18.645 13.1313 17C13.1313 15.355 11.7626 14 10.101 14ZM13.1313 4.21713e-05V3.00004H10.101V5.00003H13.1313V8.00002H15.1515V5.00003H18.1818V3.00004H15.1515V4.21713e-05H13.1313ZM10.101 16C10.6707 16 11.1111 16.436 11.1111 17C11.1111 17.564 10.6707 18 10.101 18C9.53131 18 9.09091 17.564 9.09091 17C9.09091 16.436 9.53131 16 10.101 16ZM19.1919 16C19.7616 16 20.202 16.436 20.202 17C20.202 17.564 19.7616 18 19.1919 18C18.6222 18 18.1818 17.564 18.1818 17C18.1818 16.436 18.6222 16 19.1919 16Z" fill="#9D873A"/>
</svg>
