<svg width="15" height="16" viewBox="0 0 15 16" fill="none" xmlns="http://www.w3.org/2000/svg">
<path d="M14.1631 4H11.2968V3.68C11.2968 1.648 9.5601 0 7.41878 0C5.27745 0 3.54078 1.648 3.54078 3.68V4H0.674434C0.301388 4 0 4.286 0 4.64V15.36C0 15.714 0.301388 16 0.674434 16H14.1631C14.5362 16 14.8376 15.714 14.8376 15.36V4.64C14.8376 4.286 14.5362 4 14.1631 4ZM5.05826 3.68C5.05826 2.442 6.11417 1.44 7.41878 1.44C8.72338 1.44 9.7793 2.442 9.7793 3.68V4H5.05826V3.68ZM13.3201 14.56H1.51748V5.44H3.54078V7.2C3.54078 7.288 3.61665 7.36 3.70939 7.36H4.88965C4.98238 7.36 5.05826 7.288 5.05826 7.2V5.44H9.7793V7.2C9.7793 7.288 9.85517 7.36 9.9479 7.36H11.1282C11.2209 7.36 11.2968 7.288 11.2968 7.2V5.44H13.3201V14.56Z" fill="black"/>
</svg>
