<svg width="25" height="25" viewBox="0 0 25 25" fill="none" xmlns="http://www.w3.org/2000/svg">
<path d="M3.12516 17.7085C2.83002 17.7085 2.5828 17.6085 2.3835 17.4085C2.1835 17.2092 2.0835 16.962 2.0835 16.6668V8.3335C2.0835 8.03836 2.1835 7.79079 2.3835 7.59079C2.5828 7.39148 2.83002 7.29183 3.12516 7.29183H5.2085C5.50363 7.29183 5.7512 7.39148 5.9512 7.59079C6.15051 7.79079 6.25016 8.03836 6.25016 8.3335V16.6668C6.25016 16.962 6.15051 17.2092 5.9512 17.4085C5.7512 17.6085 5.50363 17.7085 5.2085 17.7085H3.12516ZM8.3335 19.7918C8.03836 19.7918 7.79079 19.6918 7.59079 19.4918C7.39148 19.2925 7.29183 19.0453 7.29183 18.7502V6.25016C7.29183 5.95502 7.39148 5.70745 7.59079 5.50745C7.79079 5.30815 8.03836 5.2085 8.3335 5.2085H16.6668C16.962 5.2085 17.2092 5.30815 17.4085 5.50745C17.6085 5.70745 17.7085 5.95502 17.7085 6.25016V18.7502C17.7085 19.0453 17.6085 19.2925 17.4085 19.4918C17.2092 19.6918 16.962 19.7918 16.6668 19.7918H8.3335ZM19.7918 17.7085C19.4967 17.7085 19.2495 17.6085 19.0502 17.4085C18.8502 17.2092 18.7502 16.962 18.7502 16.6668V8.3335C18.7502 8.03836 18.8502 7.79079 19.0502 7.59079C19.2495 7.39148 19.4967 7.29183 19.7918 7.29183H21.8752C22.1703 7.29183 22.4175 7.39148 22.6168 7.59079C22.8168 7.79079 22.9168 8.03836 22.9168 8.3335V16.6668C22.9168 16.962 22.8168 17.2092 22.6168 17.4085C22.4175 17.6085 22.1703 17.7085 21.8752 17.7085H19.7918Z" fill="white"/>
</svg>
