<svg width="25" height="22" viewBox="0 0 25 22" fill="none" xmlns="http://www.w3.org/2000/svg">
<path d="M12.4573 0C5.55298 0 0.00122091 4.54688 0.00122091 10.1562C0.00122091 12.5791 1.0437 14.7939 2.78296 16.5381C2.17261 18.9976 0.133057 21.1899 0.108643 21.2144C-0.00122051 21.3242 -0.0317381 21.4943 0.0354006 21.6408C0.0963869 21.7873 0.231739 21.8735 0.39043 21.8735C3.62529 21.8735 6.01055 20.3228 7.25566 19.3643C8.84893 19.9624 10.6258 20.311 12.4998 20.311C19.4041 20.311 24.9559 15.7637 24.9559 10.1987C24.9559 4.63379 19.3616 0 12.4573 0ZM6.16333 11.7188C5.29663 11.7188 4.60083 11.0229 4.60083 10.2002C4.60083 9.37744 5.29663 8.6377 6.16333 8.6377C7.03003 8.6377 7.72583 9.3335 7.72583 10.2002C7.72583 11.0669 7.07153 11.7188 6.16333 11.7188ZM12.4573 11.7188C11.5906 11.7188 10.9387 11.0229 10.9387 10.2002C10.9387 9.37744 11.6345 8.6377 12.4573 8.6377C13.28 8.6377 13.9758 9.3335 13.9758 10.2002C13.9758 11.0669 13.3264 11.7188 12.4573 11.7188ZM18.6633 11.7188C17.7966 11.7188 17.1008 11.0229 17.1008 10.2002C17.1008 9.37744 17.7966 8.6377 18.6633 8.6377C19.53 8.6377 20.2258 9.3335 20.2258 10.2002C20.2258 11.0669 19.5715 11.7188 18.6633 11.7188Z" fill="#293A2C"/>
</svg>
