<svg width="25" height="19" viewBox="0 0 25 19" fill="none" xmlns="http://www.w3.org/2000/svg">
<path d="M2.08333 18.75C1.51042 18.75 1.02014 18.5462 0.6125 18.1385C0.204167 17.7302 0 17.2396 0 16.6667V2.08333C0 1.51042 0.204167 1.01979 0.6125 0.611458C1.02014 0.203819 1.51042 0 2.08333 0H22.9167C23.4896 0 23.9802 0.203819 24.3885 0.611458C24.7962 1.01979 25 1.51042 25 2.08333V16.6667C25 17.2396 24.7962 17.7302 24.3885 18.1385C23.9802 18.5462 23.4896 18.75 22.9167 18.75H2.08333ZM9.375 11.4583C10.2431 11.4583 10.9809 11.1545 11.5885 10.5469C12.1962 9.93924 12.5 9.20139 12.5 8.33333C12.5 7.46528 12.1962 6.72743 11.5885 6.11979C10.9809 5.51215 10.2431 5.20833 9.375 5.20833C8.50694 5.20833 7.7691 5.51215 7.16146 6.11979C6.55382 6.72743 6.25 7.46528 6.25 8.33333C6.25 9.20139 6.55382 9.93924 7.16146 10.5469C7.7691 11.1545 8.50694 11.4583 9.375 11.4583ZM14.5833 8.33333H21.875V3.125H14.5833V8.33333ZM2.1875 16.6667H16.5625C15.8333 15.3646 14.8264 14.3444 13.5417 13.6062C12.2569 12.8687 10.8681 12.5 9.375 12.5C7.88194 12.5 6.49306 12.8687 5.20833 13.6062C3.92361 14.3444 2.91667 15.3646 2.1875 16.6667ZM18.2292 7.03125L15.625 5.20833V4.16667L18.2292 5.98958L20.8333 4.16667V5.20833L18.2292 7.03125Z" fill="#293A2C"/>
</svg>
