<svg width="14" height="14" viewBox="0 0 14 14" fill="none" xmlns="http://www.w3.org/2000/svg">
<path d="M6.88209 9.37701C6.89609 9.3949 6.91399 9.40938 6.93442 9.41933C6.95485 9.42928 6.97727 9.43445 7 9.43445C7.02273 9.43445 7.04515 9.42928 7.06558 9.41933C7.08601 9.40938 7.10391 9.3949 7.11791 9.37701L9.21417 6.72487C9.29091 6.62754 9.22166 6.48342 9.09626 6.48342H7.70936V0.149733C7.70936 0.0673797 7.64198 0 7.55963 0H6.43663C6.35428 0 6.2869 0.0673797 6.2869 0.149733V6.48155H4.90374C4.77834 6.48155 4.70909 6.62567 4.78583 6.72299L6.88209 9.37701ZM13.8503 8.72192H12.7273C12.6449 8.72192 12.5775 8.7893 12.5775 8.87166V11.754H1.42246V8.87166C1.42246 8.7893 1.35508 8.72192 1.27273 8.72192H0.149733C0.0673797 8.72192 0 8.7893 0 8.87166V12.5775C0 12.9088 0.267647 13.1765 0.59893 13.1765H13.4011C13.7324 13.1765 14 12.9088 14 12.5775V8.87166C14 8.7893 13.9326 8.72192 13.8503 8.72192Z" fill="black"/>
</svg>
