<svg width="22" height="22" viewBox="0 0 22 22" fill="none" xmlns="http://www.w3.org/2000/svg">
<path d="M10.0499 20.9995H17.064M11.2459 1.83245C12.2327 1.28727 13.3547 1 14.4972 1C15.6397 1 16.7617 1.28727 17.7485 1.83245C18.7386 2.38355 19.5594 3.16996 20.1297 4.11379C20.7 5.05763 21 6.12615 21 7.21353C21 8.30091 20.7 9.36942 20.1297 10.3133C19.5594 11.2571 18.7386 12.0435 17.7485 12.5946L11.2459 1.83245ZM10.7658 16.4292C10.0262 16.8355 9.20918 17.0997 8.36159 17.2066C7.51399 17.3136 6.65244 17.2612 5.82625 17.0525C5.00006 16.8437 4.22547 16.4828 3.5468 15.9903C2.86814 15.4978 2.29873 14.8833 1.87119 14.1822C1.44364 13.481 1.16635 12.707 1.05518 11.9042C0.94402 11.1015 1.00117 10.2859 1.22335 9.50405C1.44553 8.72225 1.8284 7.98962 2.35002 7.34809C2.87163 6.70656 3.52177 6.16874 4.2632 5.76542L10.7658 16.4292ZM11.2459 1.83245L4.2632 5.76596L11.2459 1.83245ZM17.748 12.5946L10.7658 16.4297L17.748 12.5946ZM12.8553 5.02974L6.28648 8.95407L12.8553 5.02974ZM13.7162 14.8141V21V14.8141Z" stroke="white" stroke-width="1.7" stroke-linecap="round" stroke-linejoin="round"/>
</svg>
