<svg width="56" height="56" viewBox="0 0 56 56" fill="none" xmlns="http://www.w3.org/2000/svg">
<path d="M52.6999 4.1665H35.0999C33.8899 4.1665 32.8999 5.1565 32.8999 6.3665V19.5665C32.8999 20.7765 33.8899 21.7665 35.0999 21.7665H52.6999C53.9099 21.7665 54.8999 20.7765 54.8999 19.5665V6.3665C54.8999 5.1565 53.9099 4.1665 52.6999 4.1665ZM39.2359 17.6305L37.6849 19.1815C36.8628 18.3692 36.2108 17.4012 35.767 16.3341C35.3231 15.267 35.0964 14.1222 35.0999 12.9665C35.0999 10.7115 35.9579 8.4565 37.6739 6.7405L39.2249 8.2915C37.9489 9.5895 37.2999 11.2725 37.2999 12.9665C37.2999 14.6605 37.9489 16.3435 39.2359 17.6305V17.6305ZM43.8999 17.3665C41.4689 17.3665 39.4999 15.3975 39.4999 12.9665C39.4999 10.5355 41.4689 8.5665 43.8999 8.5665C46.3309 8.5665 48.2999 10.5355 48.2999 12.9665C48.2999 15.3975 46.3309 17.3665 43.8999 17.3665ZM50.1259 19.1925L48.5749 17.6415C49.8509 16.3435 50.4999 14.6605 50.4999 12.9665C50.4999 11.2725 49.8509 9.5895 48.5639 8.3025L50.1149 6.7515C50.937 7.56382 51.589 8.53178 52.0328 9.59887C52.4767 10.666 52.7034 11.8108 52.6999 12.9665C52.6999 15.2215 51.8419 17.4765 50.1259 19.1925ZM43.8999 10.7665C42.6899 10.7665 41.6999 11.7565 41.6999 12.9665C41.6999 14.1765 42.6899 15.1665 43.8999 15.1665C45.1099 15.1665 46.0999 14.1765 46.0999 12.9665C46.0999 11.7565 45.1099 10.7665 43.8999 10.7665Z" fill="white"/>
<path d="M12.5002 33.0835C6.74704 33.0835 2.0835 37.747 2.0835 43.5002C2.0835 49.2533 6.74704 53.9168 12.5002 53.9168C18.2533 53.9168 22.9168 49.2533 22.9168 43.5002C22.9168 37.747 18.2533 33.0835 12.5002 33.0835ZM11.4585 40.1147V46.8856C11.4585 47.0928 11.3762 47.2915 11.2297 47.438C11.0832 47.5845 10.8844 47.6668 10.6772 47.6668C10.47 47.6668 10.2713 47.5845 10.1248 47.438C9.97831 47.2915 9.896 47.0928 9.896 46.8856V40.1147C9.896 39.9075 9.97831 39.7088 10.1248 39.5623C10.2713 39.4158 10.47 39.3335 10.6772 39.3335C10.8844 39.3335 11.0832 39.4158 11.2297 39.5623C11.3762 39.7088 11.4585 39.9075 11.4585 40.1147ZM17.7085 40.1147V46.8856C17.7085 47.0928 17.6262 47.2915 17.4797 47.438C17.3332 47.5845 17.1344 47.6668 16.9272 47.6668C16.72 47.6668 16.5213 47.5845 16.3748 47.438C16.2283 47.2915 16.146 47.0928 16.146 46.8856V40.1147C16.146 39.9075 16.2283 39.7088 16.3748 39.5623C16.5213 39.4158 16.72 39.3335 16.9272 39.3335C17.1344 39.3335 17.3332 39.4158 17.4797 39.5623C17.6262 39.7088 17.7085 39.9075 17.7085 40.1147ZM14.5835 41.6772V45.3231C14.5835 45.5303 14.5012 45.729 14.3547 45.8755C14.2082 46.022 14.0094 46.1043 13.8022 46.1043C13.595 46.1043 13.3963 46.022 13.2498 45.8755C13.1033 45.729 13.021 45.5303 13.021 45.3231V41.6772C13.021 41.47 13.1033 41.2713 13.2498 41.1248C13.3963 40.9783 13.595 40.896 13.8022 40.896C14.0094 40.896 14.2082 40.9783 14.3547 41.1248C14.5012 41.2713 14.5835 41.47 14.5835 41.6772V41.6772ZM8.3335 42.1981V44.8022C8.3335 45.0094 8.25119 45.2082 8.10467 45.3547C7.95816 45.5012 7.75945 45.5835 7.55225 45.5835C7.34505 45.5835 7.14633 45.5012 6.99982 45.3547C6.85331 45.2082 6.771 45.0094 6.771 44.8022V42.1981C6.771 41.9909 6.85331 41.7922 6.99982 41.6457C7.14633 41.4991 7.34505 41.4168 7.55225 41.4168C7.75945 41.4168 7.95816 41.4991 8.10467 41.6457C8.25119 41.7922 8.3335 41.9909 8.3335 42.1981Z" fill="white"/>
<path d="M12.1094 3.125C7.14766 3.125 3.125 7.14766 3.125 12.1094V14.0625H6.25C6.4572 14.0625 6.65591 14.1448 6.80243 14.2913C6.94894 14.4378 7.03125 14.6365 7.03125 14.8438V22.6562C7.03125 22.8635 6.94894 23.0622 6.80243 23.2087C6.65591 23.3552 6.4572 23.4375 6.25 23.4375H5.07812C4.14572 23.4375 3.25151 23.0671 2.5922 22.4078C1.9329 21.7485 1.5625 20.8543 1.5625 19.9219V12.1094C1.5625 6.28438 6.28438 1.5625 12.1094 1.5625C17.9344 1.5625 22.6562 6.28438 22.6562 12.1094V19.9219C22.6562 20.8543 22.2859 21.7485 21.6265 22.4078C20.9672 23.0671 20.073 23.4375 19.1406 23.4375H17.9688C17.7615 23.4375 17.5628 23.3552 17.4163 23.2087C17.2698 23.0622 17.1875 22.8635 17.1875 22.6562V14.8438C17.1875 14.6365 17.2698 14.4378 17.4163 14.2913C17.5628 14.1448 17.7615 14.0625 17.9688 14.0625H21.0938V12.1094C21.0938 7.14766 17.0711 3.125 12.1094 3.125ZM12.8906 13.2812C12.8906 13.074 12.8083 12.8753 12.6618 12.7288C12.5153 12.5823 12.3166 12.5 12.1094 12.5C11.9022 12.5 11.7035 12.5823 11.5569 12.7288C11.4104 12.8753 11.3281 13.074 11.3281 13.2812V23.4375C11.3281 23.6447 11.4104 23.8434 11.5569 23.9899C11.7035 24.1364 11.9022 24.2188 12.1094 24.2188C12.3166 24.2188 12.5153 24.1364 12.6618 23.9899C12.8083 23.8434 12.8906 23.6447 12.8906 23.4375V13.2812ZM9.375 15.625C9.5822 15.625 9.78091 15.7073 9.92743 15.8538C10.0739 16.0003 10.1562 16.199 10.1562 16.4062V20.3125C10.1562 20.5197 10.0739 20.7184 9.92743 20.8649C9.78091 21.0114 9.5822 21.0938 9.375 21.0938C9.1678 21.0938 8.96909 21.0114 8.82257 20.8649C8.67606 20.7184 8.59375 20.5197 8.59375 20.3125V16.4062C8.59375 16.199 8.67606 16.0003 8.82257 15.8538C8.96909 15.7073 9.1678 15.625 9.375 15.625V15.625ZM15.625 16.4062C15.625 16.199 15.5427 16.0003 15.3962 15.8538C15.2497 15.7073 15.051 15.625 14.8438 15.625C14.6365 15.625 14.4378 15.7073 14.2913 15.8538C14.1448 16.0003 14.0625 16.199 14.0625 16.4062V20.3125C14.0625 20.5197 14.1448 20.7184 14.2913 20.8649C14.4378 21.0114 14.6365 21.0938 14.8438 21.0938C15.051 21.0938 15.2497 21.0114 15.3962 20.8649C15.5427 20.7184 15.625 20.5197 15.625 20.3125V16.4062Z" fill="white"/>
<path d="M50.7915 33.0835H36.2082C35.6329 33.0835 35.1665 33.5499 35.1665 34.1252V52.8752C35.1665 53.4505 35.6329 53.9168 36.2082 53.9168H50.7915C51.3668 53.9168 51.8332 53.4505 51.8332 52.8752V34.1252C51.8332 33.5499 51.3668 33.0835 50.7915 33.0835Z" stroke="white" stroke-width="2.08333" stroke-linecap="round" stroke-linejoin="round"/>
<path d="M43.4997 41.4168C44.9379 41.4168 46.1038 40.2509 46.1038 38.8127C46.1038 37.3744 44.9379 36.2085 43.4997 36.2085C42.0614 36.2085 40.8955 37.3744 40.8955 38.8127C40.8955 40.2509 42.0614 41.4168 43.4997 41.4168Z" stroke="white" stroke-width="2.08333"/>
<path d="M38.2917 37.2503C38.867 37.2503 39.3333 36.784 39.3333 36.2087C39.3333 35.6334 38.867 35.167 38.2917 35.167C37.7164 35.167 37.25 35.6334 37.25 36.2087C37.25 36.784 37.7164 37.2503 38.2917 37.2503Z" fill="white"/>
<path d="M38.2917 51.8333C38.867 51.8333 39.3333 51.367 39.3333 50.7917C39.3333 50.2164 38.867 49.75 38.2917 49.75C37.7164 49.75 37.25 50.2164 37.25 50.7917C37.25 51.367 37.7164 51.8333 38.2917 51.8333Z" fill="white"/>
<path d="M48.7082 37.2503C49.2835 37.2503 49.7498 36.784 49.7498 36.2087C49.7498 35.6334 49.2835 35.167 48.7082 35.167C48.1329 35.167 47.6665 35.6334 47.6665 36.2087C47.6665 36.784 48.1329 37.2503 48.7082 37.2503Z" fill="white"/>
<path d="M48.7082 51.8333C49.2835 51.8333 49.7498 51.367 49.7498 50.7917C49.7498 50.2164 49.2835 49.75 48.7082 49.75C48.1329 49.75 47.6665 50.2164 47.6665 50.7917C47.6665 51.367 48.1329 51.8333 48.7082 51.8333Z" fill="white"/>
<path d="M43.5 50.792C45.2259 50.792 46.625 49.3929 46.625 47.667C46.625 45.9411 45.2259 44.542 43.5 44.542C41.7741 44.542 40.375 45.9411 40.375 47.667C40.375 49.3929 41.7741 50.792 43.5 50.792Z" stroke="white" stroke-width="2.08333"/>
</svg>
