<svg width="25" height="56" viewBox="0 0 25 56" fill="none" xmlns="http://www.w3.org/2000/svg">
<path d="M11.2 41H13.8V56H11.2V41ZM6 49.75H8.6V56H6V49.75ZM16.4 44.75H19V56H16.4V44.75Z" fill="white"/>
<path d="M3.125 7.29167V6.25C3.125 4.52411 4.52411 3.125 6.25 3.125H18.75C20.4759 3.125 21.875 4.52411 21.875 6.25V7.29167" stroke="white" stroke-width="2.08333" stroke-linecap="round" stroke-linejoin="round"/>
<path d="M16.6665 9.375V15.625" stroke="white" stroke-width="2.08333" stroke-linecap="round" stroke-linejoin="round"/>
<path d="M20.8335 10.4165V14.5832" stroke="white" stroke-width="2.08333" stroke-linecap="round" stroke-linejoin="round"/>
<path d="M12.5 7.8125V17.1875" stroke="white" stroke-width="2.08333" stroke-linecap="round" stroke-linejoin="round"/>
<path d="M8.3335 9.375V15.625" stroke="white" stroke-width="2.08333" stroke-linecap="round" stroke-linejoin="round"/>
<path d="M4.1665 10.4165V14.5832" stroke="white" stroke-width="2.08333" stroke-linecap="round" stroke-linejoin="round"/>
<path d="M3.125 17.7085V18.7502C3.125 20.476 4.52411 21.8752 6.25 21.8752H18.75C20.4759 21.8752 21.875 20.476 21.875 18.7502V17.7085" stroke="white" stroke-width="2.08333" stroke-linecap="round" stroke-linejoin="round"/>
<path d="M4.08333 29C2.9375 29 2 29.9375 2 31.0833V35.25C2 35.8025 2.21949 36.3324 2.61019 36.7231C3.00089 37.1138 3.5308 37.3333 4.08333 37.3333H20.75C21.9062 37.3333 22.8333 36.4062 22.8333 35.25V31.0833C22.8333 30.5308 22.6138 30.0009 22.2231 29.6102C21.8324 29.2195 21.3025 29 20.75 29H4.08333ZM9.29167 31.0833C9.8442 31.0833 10.3741 31.3028 10.7648 31.6935C11.1555 32.0842 11.375 32.6141 11.375 33.1667C11.375 34.3229 10.4479 35.25 9.29167 35.25C8.73913 35.25 8.20923 35.0305 7.81853 34.6398C7.42783 34.2491 7.20833 33.7192 7.20833 33.1667C7.20833 32.6141 7.42783 32.0842 7.81853 31.6935C8.20923 31.3028 8.73913 31.0833 9.29167 31.0833V31.0833ZM15.5417 31.0833C16.0942 31.0833 16.6241 31.3028 17.0148 31.6935C17.4055 32.0842 17.625 32.6141 17.625 33.1667C17.625 34.3229 16.6979 35.25 15.5417 35.25C14.9891 35.25 14.4592 35.0305 14.0685 34.6398C13.6778 34.2491 13.4583 33.7192 13.4583 33.1667C13.4583 32.6141 13.6778 32.0842 14.0685 31.6935C14.4592 31.3028 14.9891 31.0833 15.5417 31.0833V31.0833ZM5.125 32.125C5.69792 32.125 6.16667 32.5937 6.16667 33.1667C6.16667 33.7396 5.69792 34.2083 5.125 34.2083C4.55208 34.2083 4.08333 33.7396 4.08333 33.1667C4.08333 32.5937 4.55208 32.125 5.125 32.125ZM9.29167 32.125C8.71875 32.125 8.25 32.5937 8.25 33.1667C8.25 33.7396 8.71875 34.2083 9.29167 34.2083C9.86458 34.2083 10.3333 33.7396 10.3333 33.1667C10.3333 32.5937 9.86458 32.125 9.29167 32.125ZM15.5417 32.125C14.9687 32.125 14.5 32.5937 14.5 33.1667C14.5 33.7396 14.9687 34.2083 15.5417 34.2083C16.1146 34.2083 16.5833 33.7396 16.5833 33.1667C16.5833 32.5937 16.1146 32.125 15.5417 32.125ZM19.7083 32.125C20.2812 32.125 20.75 32.5937 20.75 33.1667C20.75 33.7396 20.2812 34.2083 19.7083 34.2083C19.1354 34.2083 18.6667 33.7396 18.6667 33.1667C18.6667 32.5937 19.1354 32.125 19.7083 32.125Z" fill="white"/>
</svg>
