<svg width="21" height="21" viewBox="0 0 21 21" fill="none" xmlns="http://www.w3.org/2000/svg">
<path d="M10.5 0C16.2986 0 21 4.70138 21 10.5C21 16.2986 16.2986 21 10.5 21C4.70138 21 0 16.2986 0 10.5C0 4.70138 4.70138 0 10.5 0ZM10.5 5.25C10.3414 5.25001 10.1882 5.30744 10.0687 5.41167C9.94917 5.5159 9.87144 5.65989 9.84987 5.817L9.84375 5.90625V9.84375H5.90625C5.73998 9.8438 5.57993 9.90696 5.45843 10.0205C5.33694 10.134 5.26306 10.2894 5.25173 10.4553C5.24039 10.6212 5.29245 10.7852 5.39738 10.9141C5.50231 11.0431 5.65228 11.1275 5.817 11.1501L5.90625 11.1562H9.84375V15.0938C9.8438 15.26 9.90696 15.4201 10.0205 15.5416C10.134 15.6631 10.2894 15.7369 10.4553 15.7483C10.6212 15.7596 10.7852 15.7075 10.9141 15.6026C11.0431 15.4977 11.1275 15.3477 11.1501 15.183L11.1562 15.0938V11.1562H15.0938C15.26 11.1562 15.4201 11.093 15.5416 10.9795C15.6631 10.866 15.7369 10.7106 15.7483 10.5447C15.7596 10.3788 15.7075 10.2148 15.6026 10.0859C15.4977 9.95688 15.3477 9.87254 15.183 9.84987L15.0938 9.84375H11.1562V5.90625C11.1562 5.7322 11.0871 5.56528 10.964 5.44221C10.841 5.31914 10.674 5.25 10.5 5.25V5.25Z" fill="#F5BB52"/>
</svg>
