<svg width="25" height="25" viewBox="0 0 25 25" fill="none" xmlns="http://www.w3.org/2000/svg">
<path d="M12.5 1.5625C9.61002 1.59737 6.84824 2.7609 4.80457 4.80457C2.7609 6.84824 1.59737 9.61002 1.5625 12.5C1.59737 15.39 2.7609 18.1518 4.80457 20.1954C6.84824 22.2391 9.61002 23.4026 12.5 23.4375C15.39 23.4026 18.1518 22.2391 20.1954 20.1954C22.2391 18.1518 23.4026 15.39 23.4375 12.5C23.4026 9.61002 22.2391 6.84824 20.1954 4.80457C18.1518 2.7609 15.39 1.59737 12.5 1.5625V1.5625ZM18.75 13.2812H13.2812V18.75H11.7188V13.2812H6.25V11.7188H11.7188V6.25H13.2812V11.7188H18.75V13.2812Z" fill="black"/>
</svg>
