<svg width="21" height="21" viewBox="0 0 21 21" fill="none" xmlns="http://www.w3.org/2000/svg">
<path d="M20.5654 10.7464L11.1904 0.329687C10.7956 -0.109896 10.0372 -0.109896 9.64243 0.329687L0.267436 10.7464C0.132739 10.896 0.0442979 11.0815 0.0128145 11.2803C-0.0186689 11.4792 0.00815442 11.6829 0.090039 11.8669C0.171924 12.0508 0.30536 12.2071 0.474201 12.3168C0.643043 12.4264 0.840053 12.4848 1.04139 12.4849H3.12473V19.7766C3.12473 20.0528 3.23447 20.3178 3.42982 20.5131C3.62517 20.7085 3.89013 20.8182 4.16639 20.8182H16.6664C16.9427 20.8182 17.2076 20.7085 17.403 20.5131C17.5983 20.3178 17.7081 20.0528 17.7081 19.7766V12.4849H19.7914C19.9931 12.4858 20.1908 12.4279 20.3602 12.3184C20.5296 12.2089 20.6635 12.0524 20.7455 11.8681C20.8276 11.6838 20.8542 11.4796 20.8222 11.2804C20.7903 11.0813 20.701 10.8957 20.5654 10.7464V10.7464ZM10.4164 14.5682C9.58759 14.5682 8.79274 14.239 8.20668 13.6529C7.62063 13.0669 7.29139 12.272 7.29139 11.4432C7.29139 10.6144 7.62063 9.81957 8.20668 9.23352C8.79274 8.64747 9.58759 8.31823 10.4164 8.31823C11.2452 8.31823 12.0401 8.64747 12.6261 9.23352C13.2122 9.81957 13.5414 10.6144 13.5414 11.4432C13.5414 12.272 13.2122 13.0669 12.6261 13.6529C12.0401 14.239 11.2452 14.5682 10.4164 14.5682Z" fill="#F5BB52"/>
</svg>
