<svg width="24" height="19" viewBox="0 0 24 19" fill="none" xmlns="http://www.w3.org/2000/svg">
<path d="M18 13.0625C17.16 13.0625 16.45 12.7755 15.87 12.2016C15.29 11.6276 15 10.925 15 10.0938C15 9.2625 15.29 8.5599 15.87 7.98594C16.45 7.41198 17.16 7.125 18 7.125C18.84 7.125 19.55 7.41198 20.13 7.98594C20.71 8.5599 21 9.2625 21 10.0938C21 10.925 20.71 11.6276 20.13 12.2016C19.55 12.7755 18.84 13.0625 18 13.0625ZM12 19V17.3375C12 16.8625 12.1248 16.4223 12.3744 16.017C12.6248 15.6109 12.98 15.3188 13.44 15.1406C14.16 14.8438 14.9052 14.6213 15.6756 14.4732C16.4452 14.3244 17.22 14.25 18 14.25C18.78 14.25 19.5552 14.3244 20.3256 14.4732C21.0952 14.6213 21.84 14.8438 22.56 15.1406C23.02 15.3188 23.3752 15.6109 23.6256 16.017C23.8752 16.4223 24 16.8625 24 17.3375V19H12ZM9.6 9.5C8.28 9.5 7.15 9.0349 6.21 8.10469C5.27 7.17448 4.8 6.05625 4.8 4.75C4.8 3.44375 5.27 2.32552 6.21 1.39531C7.15 0.465104 8.28 0 9.6 0C10.92 0 12.05 0.465104 12.99 1.39531C13.93 2.32552 14.4 3.44375 14.4 4.75C14.4 6.05625 13.93 7.17448 12.99 8.10469C12.05 9.0349 10.92 9.5 9.6 9.5ZM0 19V15.4375C0 14.9229 0.18 14.4135 0.54 13.9092C0.9 13.4041 1.43 12.9635 2.13 12.5875C3.21 12.0135 4.39 11.5536 5.67 11.2076C6.95 10.8609 8.26 10.6875 9.6 10.6875C10.14 10.6875 10.7152 10.7271 11.3256 10.8063C11.9352 10.8854 12.56 11.0042 13.2 11.1625V12.7062C12.92 12.8052 12.68 12.9042 12.48 13.0031C12.28 13.1021 12.07 13.2109 11.85 13.3297C11.11 13.7453 10.55 14.2896 10.17 14.9625C9.79 15.6354 9.6 16.1896 9.6 16.625V19H0Z" fill="#F5BB52"/>
</svg>
