<svg width="22" height="18" viewBox="0 0 22 18" fill="none" xmlns="http://www.w3.org/2000/svg">
<path d="M22 4.63788V14.4375C22 15.3492 21.6378 16.2235 20.9932 16.8682C20.3485 17.5128 19.4742 17.875 18.5625 17.875H3.4375C2.52582 17.875 1.65148 17.5128 1.00682 16.8682C0.362164 16.2235 0 15.3492 0 14.4375V4.63788L10.6508 10.9051C10.7566 10.9675 10.8772 11.0004 11 11.0004C11.1228 11.0004 11.2434 10.9675 11.3492 10.9051L22 4.63788ZM18.5625 4.25599e-08C19.4083 -0.000132984 20.2245 0.311584 20.8549 0.875517C21.4853 1.43945 21.8857 2.21601 21.9794 3.05663L11 9.515L0.0206251 3.05663C0.114343 2.21601 0.514695 1.43945 1.14509 0.875517C1.77549 0.311584 2.59167 -0.000132984 3.4375 4.25599e-08H18.5625Z" fill="#4D5D3E"/>
</svg>
