<svg width="15" height="15" viewBox="0 0 15 15" fill="none" xmlns="http://www.w3.org/2000/svg">
<path d="M6.5964 3.90014L4.48202 1.45952C4.23827 1.17827 3.7914 1.17952 3.50827 1.46327L1.76952 3.20514C1.25202 3.72327 1.1039 4.49264 1.40327 5.10952C3.19178 8.81262 6.1783 11.8033 9.8789 13.597C10.4951 13.8964 11.2639 13.7483 11.7814 13.2301L13.5364 11.472C13.8208 11.1876 13.8214 10.7383 13.5376 10.4945L11.0876 8.39139C10.8314 8.17139 10.4333 8.20014 10.1764 8.45764L9.3239 9.31139C9.28025 9.35713 9.2228 9.38728 9.16036 9.39722C9.09793 9.40715 9.03396 9.39632 8.97827 9.36639C7.5848 8.56395 6.42889 7.40653 5.62827 6.01202C5.59829 5.95624 5.58743 5.89216 5.59737 5.82961C5.6073 5.76707 5.63748 5.70951 5.68327 5.66577L6.53327 4.81514C6.79077 4.55639 6.8189 4.15639 6.5964 3.89952V3.90014Z" stroke="white" stroke-width="1.25" stroke-linecap="round" stroke-linejoin="round"/>
</svg>
