<svg width="20" height="21" viewBox="0 0 20 21" fill="none" xmlns="http://www.w3.org/2000/svg">
<path d="M15.3693 20.9998C11.2947 20.9943 7.38854 19.2889 4.50738 16.2577C1.62623 13.2264 0.00528135 9.11683 0 4.83005C0 3.54907 0.483674 2.32056 1.34462 1.41477C2.20556 0.508986 3.37326 0.000120008 4.59082 0.000120008C4.84864 -0.00194615 5.10604 0.0226719 5.35928 0.0736189C5.6041 0.111734 5.84478 0.175036 6.07784 0.262616C6.24176 0.323126 6.38783 0.427604 6.5016 0.565718C6.61538 0.703831 6.69291 0.870797 6.72655 1.0501L8.09381 7.35001C8.13066 7.52102 8.12623 7.69901 8.0809 7.86774C8.03558 8.03648 7.95081 8.19058 7.83433 8.316C7.70459 8.463 7.69461 8.4735 6.46706 9.14549C7.45009 11.4144 9.17485 13.2364 11.3273 14.2799C11.976 12.9779 11.986 12.9674 12.1257 12.8309C12.245 12.7084 12.3914 12.6192 12.5518 12.5715C12.7122 12.5238 12.8814 12.5192 13.0439 12.5579L19.0319 13.9964C19.1969 14.0367 19.3494 14.1205 19.4751 14.2399C19.6008 14.3593 19.6956 14.5103 19.7505 14.6789C19.8347 14.9281 19.8982 15.1846 19.9401 15.4454C19.9803 15.7093 20.0003 15.9761 20 16.2434C19.9816 17.5189 19.4843 18.7349 18.6167 19.6261C17.7491 20.5172 16.5817 21.0111 15.3693 20.9998V20.9998Z" fill="#4D5D3E"/>
</svg>
