<svg width="14" height="15" viewBox="0 0 14 15" fill="none" xmlns="http://www.w3.org/2000/svg">
<path d="M9.1875 0.9375C8.57264 0.937349 7.96629 1.09152 7.41704 1.38764C6.8678 1.68377 6.39094 2.11363 6.02466 2.64277C5.65839 3.17191 5.4129 3.78562 5.30785 4.43472C5.2028 5.08382 5.24113 5.75025 5.41975 6.38063L0.875 11.25V14.0625H3.5L8.04475 9.19312C8.58633 9.36926 9.15699 9.41823 9.71783 9.33669C10.2787 9.25516 10.8165 9.04503 11.2947 8.72064C11.7729 8.39626 12.1802 7.96522 12.4889 7.45692C12.7975 6.94862 13.0003 6.375 13.0833 5.77515C13.1663 5.17531 13.1277 4.56333 12.97 3.98093C12.8123 3.39853 12.5393 2.85939 12.1696 2.40026C11.7998 1.94114 11.3421 1.57281 10.8275 1.32038C10.3128 1.06795 9.75348 0.937359 9.1875 0.9375ZM9.1875 8.4375C8.88629 8.43732 8.58674 8.38962 8.2985 8.29594L7.79669 8.13281L7.42613 8.52984L6.03444 10.0209L5.43112 9.375L4.8125 10.0378L5.41581 10.6842L4.72194 11.4277L4.11862 10.7812L3.5 11.4441L4.10331 12.0905L3.13775 13.125H1.75V11.6381L6.03837 7.04344L6.40937 6.64641L6.25712 6.10875C6.07013 5.44828 6.08228 4.74145 6.29184 4.0888C6.5014 3.43615 6.89771 2.87092 7.42439 2.47351C7.95107 2.07611 8.5813 1.86676 9.22543 1.87525C9.86956 1.88374 10.4948 2.10964 11.0122 2.52081C11.5296 2.93198 11.9128 3.50748 12.1073 4.16545C12.3018 4.82343 12.2977 5.53037 12.0956 6.18571C11.8935 6.84105 11.5037 7.41143 10.9816 7.8157C10.4595 8.21997 9.83168 8.43756 9.1875 8.4375Z" fill="black"/>
<path d="M9.625 5.625C10.1082 5.625 10.5 5.20527 10.5 4.6875C10.5 4.16973 10.1082 3.75 9.625 3.75C9.14175 3.75 8.75 4.16973 8.75 4.6875C8.75 5.20527 9.14175 5.625 9.625 5.625Z" fill="black"/>
</svg>
