<svg width="15" height="16" viewBox="0 0 15 16" fill="none" xmlns="http://www.w3.org/2000/svg">
<path d="M6.41471 13.684C7.83796 13.6837 9.22019 13.1755 10.3413 12.2403L13.8662 16L15 14.7907L11.4751 11.031C12.3523 9.83508 12.8291 8.36043 12.8294 6.84199C12.8294 3.06949 9.95162 0 6.41471 0C2.8778 0 0 3.06949 0 6.84199C0 10.6145 2.8778 13.684 6.41471 13.684ZM6.41471 1.7105C9.068 1.7105 11.2257 4.01197 11.2257 6.84199C11.2257 9.67201 9.068 11.9735 6.41471 11.9735C3.76143 11.9735 1.60368 9.67201 1.60368 6.84199C1.60368 4.01197 3.76143 1.7105 6.41471 1.7105Z" fill="black"/>
</svg>
