<svg width="21" height="15" viewBox="0 0 21 15" fill="none" xmlns="http://www.w3.org/2000/svg">
<path d="M10.4729 0C2.52187 0 0.132292 6.89271 0.110417 6.9625L0 7.29167L0.109375 7.62083C0.132292 7.69062 2.52187 14.5833 10.4729 14.5833C18.424 14.5833 20.8135 7.69062 20.8354 7.62083L20.9458 7.29167L20.8365 6.9625C20.8135 6.89271 18.424 0 10.4729 0ZM10.4729 11.4583C8.175 11.4583 6.30625 9.58958 6.30625 7.29167C6.30625 4.99375 8.175 3.125 10.4729 3.125C12.7708 3.125 14.6396 4.99375 14.6396 7.29167C14.6396 9.58958 12.7708 11.4583 10.4729 11.4583Z" fill="white"/>
<path d="M10.473 5.20801C9.34382 5.20801 8.38965 6.16217 8.38965 7.29134C8.38965 8.42051 9.34382 9.37467 10.473 9.37467C11.6021 9.37467 12.5563 8.42051 12.5563 7.29134C12.5563 6.16217 11.6021 5.20801 10.473 5.20801Z" fill="white"/>
</svg>
