<svg width="15" height="15" viewBox="0 0 15 15" fill="none" xmlns="http://www.w3.org/2000/svg">
<path d="M7.5 5.625C7.00373 5.62828 6.52872 5.82687 6.17779 6.17779C5.82687 6.52872 5.62828 7.00373 5.625 7.5C5.625 8.52625 6.47375 9.375 7.5 9.375C8.52562 9.375 9.375 8.52625 9.375 7.5C9.375 6.47438 8.52562 5.625 7.5 5.625Z" fill="black"/>
<path d="M7.5 3.125C2.72937 3.125 1.29562 7.26062 1.2825 7.3025L1.21625 7.5L1.28187 7.6975C1.29562 7.73938 2.72937 11.875 7.5 11.875C12.2706 11.875 13.7044 7.73938 13.7175 7.6975L13.7837 7.5L13.7181 7.3025C13.7044 7.26062 12.2706 3.125 7.5 3.125ZM7.5 10.625C4.15562 10.625 2.86 8.22125 2.54625 7.5C2.86125 6.77625 4.1575 4.375 7.5 4.375C10.8444 4.375 12.14 6.77875 12.4537 7.5C12.1387 8.22375 10.8425 10.625 7.5 10.625Z" fill="black"/>
</svg>
