<svg width="25" height="25" viewBox="0 0 25 25" fill="none" xmlns="http://www.w3.org/2000/svg">
<g clip-path="url(#clip0_246_10798)">
<path d="M5.83333 17.49L6.26167 16.775L6.06333 16.6583H5.83333V17.4917V17.49ZM5.83333 7.49668V8.33001H6.06333L6.26333 8.21168L5.83333 7.49668ZM14.1667 2.50001H15C15 2.35257 14.9609 2.20776 14.8867 2.08036C14.8125 1.95296 14.7058 1.84753 14.5775 1.77483C14.4493 1.70214 14.304 1.66478 14.1566 1.66657C14.0091 1.66835 13.8648 1.70923 13.7383 1.78501L14.1667 2.50001V2.50001ZM14.1667 22.4867L13.7383 23.2017C13.8648 23.2775 14.0091 23.3183 14.1566 23.3201C14.304 23.3219 14.4493 23.2846 14.5775 23.2119C14.7058 23.1392 14.8125 23.0337 14.8867 22.9063C14.9609 22.7789 15 22.6341 15 22.4867H14.1667ZM23.0883 6.90668L22.5 6.31835L21.3217 7.49668L21.9117 8.08668L23.0883 6.90668V6.90668ZM21.9117 16.9L21.3217 17.49L22.5 18.6683L23.0883 18.08L21.9117 16.9V16.9ZM5.83333 16.6567H2.5V18.3233H5.83333V16.6567ZM2.5 16.6567C2.27899 16.6567 2.06702 16.5689 1.91074 16.4126C1.75446 16.2563 1.66667 16.0444 1.66667 15.8233H0C0 17.2067 1.12 18.3233 2.5 18.3233V16.6567ZM1.66667 15.8233V9.16335H0V15.8267H1.66667V15.8233ZM1.66667 9.16168C1.66711 8.94095 1.7551 8.72942 1.91133 8.5735C2.06757 8.41758 2.27927 8.33001 2.5 8.33001V6.66335C1.83696 6.66335 1.20107 6.92674 0.732233 7.39558C0.263392 7.86442 0 8.5003 0 9.16335H1.66667V9.16168ZM2.5 8.33001H5.83333V6.66335H2.5V8.33001ZM6.26167 8.21168L14.595 3.21501L13.7383 1.78501L5.405 6.78168L6.26167 8.21168V8.21168ZM13.3333 2.50001V22.4867H15V2.50001H13.3333ZM14.595 21.7717L6.26167 16.775L5.405 18.205L13.7383 23.2017L14.595 21.7717V21.7717ZM22.5 7.49668C21.9117 8.08668 21.91 8.08668 21.91 8.08501C21.9087 8.08406 21.9076 8.08294 21.9067 8.08168L21.9117 8.08668L21.945 8.12335C22.1959 8.42997 22.4117 8.76372 22.5883 9.11835C22.955 9.85001 23.3333 10.9717 23.3333 12.4933H25C25 10.6833 24.5467 9.30835 24.0783 8.37335C23.8938 7.9997 23.6763 7.64328 23.4283 7.30835C23.3336 7.18301 23.233 7.06232 23.1267 6.94668L23.1033 6.92168L23.095 6.91334L23.0917 6.91001L23.09 6.90835L22.5 7.49668V7.49668ZM23.3333 12.4933C23.3333 14.015 22.9533 15.1367 22.5883 15.8683C22.4117 16.223 22.1959 16.5567 21.945 16.8633C21.9341 16.8758 21.923 16.888 21.9117 16.9L21.9067 16.905L21.9083 16.9033L21.91 16.9017L22.5 17.49C23.0883 18.08 23.09 18.08 23.09 18.0783H23.0917L23.095 18.0733L23.1033 18.065L23.1267 18.0417L23.1983 17.9617C23.2567 17.895 23.335 17.8 23.4267 17.6783C23.61 17.435 23.845 17.0783 24.0783 16.6133C24.545 15.68 25 14.3033 25 12.4933H23.3333V12.4933Z" fill="white"/>
</g>
<defs>
<clipPath id="clip0_246_10798">
<rect width="25" height="25" fill="white"/>
</clipPath>
</defs>
</svg>
