<svg width="20" height="20" viewBox="0 0 20 20" fill="none" xmlns="http://www.w3.org/2000/svg">
<path d="M16.4669 8.4881C16.4276 8.3724 16.3553 8.27072 16.2589 8.19564C16.1625 8.12056 16.0462 8.07535 15.9244 8.0656L12.3613 7.78248L10.8194 4.36935C10.7703 4.25942 10.6904 4.16606 10.5894 4.10052C10.4884 4.03498 10.3706 4.00007 10.2502 4C10.1298 3.99993 10.012 4.03471 9.91091 4.10014C9.80984 4.16557 9.72987 4.25885 9.68064 4.36873L8.13877 7.78248L4.57564 8.0656C4.45593 8.07509 4.34148 8.11886 4.24599 8.19169C4.1505 8.26451 4.07801 8.36331 4.0372 8.47625C3.99639 8.58919 3.98898 8.7115 4.01586 8.82854C4.04274 8.94559 4.10277 9.05241 4.18877 9.13623L6.82189 11.7031L5.89064 15.7356C5.86236 15.8577 5.87143 15.9854 5.91665 16.1023C5.96188 16.2191 6.04118 16.3197 6.14427 16.3909C6.24735 16.4621 6.36947 16.5007 6.49476 16.5016C6.62005 16.5026 6.74273 16.4659 6.84689 16.3962L10.25 14.1275L13.6531 16.3962C13.7596 16.4669 13.8852 16.5033 14.0129 16.5005C14.1407 16.4977 14.2645 16.4558 14.3678 16.3806C14.471 16.3053 14.5488 16.2002 14.5905 16.0794C14.6322 15.9586 14.636 15.828 14.6013 15.705L13.4581 11.705L16.2931 9.15373C16.4788 8.98623 16.5469 8.72498 16.4669 8.4881V8.4881Z" fill="#DEB72D"/>
</svg>
