<svg width="25" height="25" viewBox="0 0 25 25" fill="none" xmlns="http://www.w3.org/2000/svg">
<path d="M14.4306 3.27771C14.5282 3.37538 14.5831 3.50783 14.5831 3.64594C14.5831 3.78405 14.5282 3.9165 14.4306 4.01417L13.2363 5.20844L14.4306 6.40271C14.5254 6.50094 14.5779 6.6325 14.5768 6.76906C14.5756 6.90563 14.5208 7.03626 14.4242 7.13282C14.3277 7.22939 14.197 7.28417 14.0605 7.28535C13.9239 7.28654 13.7923 7.23404 13.6941 7.13917L12.4998 5.9449L11.3056 7.13917C11.2572 7.18752 11.1997 7.22588 11.1365 7.25203C11.0733 7.27819 11.0056 7.29164 10.9372 7.29162C10.8687 7.29159 10.801 7.27809 10.7378 7.25189C10.6746 7.22569 10.6172 7.1873 10.5688 7.13891C10.5205 7.09052 10.4821 7.03308 10.456 6.96986C10.4298 6.90665 10.4164 6.8389 10.4164 6.77049C10.4164 6.70208 10.4299 6.63435 10.4561 6.57115C10.4823 6.50796 10.5207 6.45055 10.5691 6.40219L11.7634 5.20844L10.5691 4.01417C10.5208 3.96578 10.4824 3.90834 10.4562 3.84512C10.4301 3.78191 10.4166 3.71417 10.4167 3.64575C10.4167 3.57734 10.4302 3.50961 10.4564 3.44641C10.4826 3.38322 10.521 3.32581 10.5694 3.27745C10.6178 3.22909 10.6752 3.19074 10.7384 3.16458C10.8016 3.13843 10.8694 3.12498 10.9378 3.125C11.0062 3.12502 11.0739 3.13852 11.1371 3.16472C11.2003 3.19093 11.2577 3.22932 11.3061 3.27771L12.4998 4.47198L13.6941 3.27771C13.7918 3.18007 13.9242 3.12522 14.0623 3.12522C14.2004 3.12522 14.3329 3.18007 14.4306 3.27771ZM9.9988 17.0459C10.3475 17.1621 10.7232 17.1702 11.0766 17.0691C11.43 16.968 11.7445 16.7624 11.979 16.4793V21.8871L5.729 19.5314V15.623L9.9988 17.0459Z" fill="white"/>
<path fill-rule="evenodd" clip-rule="evenodd" d="M19.2707 19.5312L13.0207 21.887V16.4792C13.2551 16.7622 13.5697 16.9678 13.9231 17.069C14.2764 17.1701 14.6521 17.162 15.0009 17.0458L19.2707 15.6229V19.5312ZM12.6701 7.84113C12.5598 7.80296 12.4398 7.80296 12.3295 7.84113L5.55972 10.1849L5.54774 10.1885C5.45667 10.2223 5.37691 10.2809 5.31753 10.3578L3.23941 12.9557C3.18692 13.0212 3.15104 13.0984 3.13482 13.1808C3.1186 13.2631 3.12252 13.3482 3.14625 13.4287C3.16999 13.5092 3.21283 13.5828 3.27112 13.6432C3.32942 13.7036 3.40145 13.749 3.48107 13.7755L10.5123 16.1193C10.6188 16.1546 10.7339 16.1547 10.8404 16.1194C10.9469 16.0841 11.0392 16.0154 11.1035 15.9234L12.4998 13.9286L13.8957 15.9234C13.96 16.0155 14.0523 16.0843 14.159 16.1196C14.2656 16.1549 14.3808 16.1548 14.4873 16.1193L21.5186 13.7755C21.5982 13.749 21.6703 13.7037 21.7287 13.6433C21.787 13.5829 21.8299 13.5094 21.8537 13.4288C21.8775 13.3483 21.8815 13.2633 21.8653 13.1809C21.8491 13.0985 21.8132 13.0212 21.7608 12.9557L19.6826 10.3578C19.6205 10.2774 19.5361 10.2171 19.4399 10.1844L12.6701 7.84113ZM12.4998 12.4698L17.6785 10.6771L12.4998 8.88436L7.32118 10.6771L12.4998 12.4698Z" fill="white"/>
</svg>
