<svg width="27" height="21" viewBox="0 0 27 21" fill="none" xmlns="http://www.w3.org/2000/svg">
<path d="M9.77499 13.1304C10.2709 13.2956 10.8051 13.3071 11.3077 13.1633C11.8102 13.0195 12.2575 12.7271 12.5909 12.3246V20.0147L3.70312 16.6648V11.1069L9.77499 13.1304Z" fill="#F5BB52"/>
<path fill-rule="evenodd" clip-rule="evenodd" d="M22.9599 16.6646L14.0721 20.0146V12.3244C14.4055 12.727 14.8529 13.0193 15.3554 13.1632C15.8579 13.307 16.3922 13.2955 16.8881 13.1302L22.9599 11.1068V16.6646ZM13.5737 0.0407178C13.4168 -0.0135726 13.2462 -0.0135726 13.0893 0.0407178L3.46229 3.37365L3.44526 3.37883C3.31575 3.42684 3.20233 3.51024 3.11789 3.61954L0.162691 7.31391C0.0880491 7.40705 0.0370237 7.51685 0.0139594 7.63396C-0.00910479 7.75107 -0.00352454 7.87202 0.0302254 7.98651C0.0639753 8.101 0.124895 8.20563 0.207796 8.29151C0.290697 8.37738 0.393124 8.44194 0.506353 8.4797L10.5051 11.8126C10.6566 11.863 10.8202 11.863 10.9717 11.8129C11.1231 11.7627 11.2544 11.6649 11.3458 11.5341L13.3315 8.69745L15.3164 11.5341C15.4079 11.6651 15.5392 11.7629 15.6909 11.8131C15.8425 11.8633 16.0063 11.8631 16.1578 11.8126L26.1566 8.4797C26.2699 8.44203 26.3724 8.37752 26.4554 8.29169C26.5384 8.20585 26.5994 8.10123 26.6332 7.98673C26.667 7.87223 26.6727 7.75125 26.6496 7.6341C26.6266 7.51695 26.5756 7.4071 26.501 7.31391L23.5458 3.61954C23.4574 3.50528 23.3374 3.41952 23.2007 3.37291L13.5737 0.0407178V0.0407178ZM13.3315 6.62289L20.6958 4.07356L13.3315 1.52424L5.96718 4.07356L13.3315 6.62289Z" fill="#F5BB52"/>
</svg>
