<svg width="21" height="21" viewBox="0 0 21 21" fill="none" xmlns="http://www.w3.org/2000/svg">
<path d="M10.4167 0C4.76979 0 0 4.76979 0 10.4167C0 16.0635 4.76979 20.8333 10.4167 20.8333C16.0635 20.8333 20.8333 16.0635 20.8333 10.4167C20.8333 4.76979 16.0635 0 10.4167 0ZM10.4167 5.20833C12.2156 5.20833 13.5417 6.53333 13.5417 8.33333C13.5417 10.1333 12.2156 11.4583 10.4167 11.4583C8.61875 11.4583 7.29167 10.1333 7.29167 8.33333C7.29167 6.53333 8.61875 5.20833 10.4167 5.20833ZM5.09792 15.3875C6.03229 14.0125 7.59062 13.0958 9.375 13.0958H11.4583C13.2437 13.0958 14.801 14.0125 15.7354 15.3875C14.4042 16.8125 12.5156 17.7083 10.4167 17.7083C8.31771 17.7083 6.42917 16.8125 5.09792 15.3875Z" fill="#293A2C"/>
</svg>
