<svg width="20" height="20" viewBox="0 0 20 20" fill="none" xmlns="http://www.w3.org/2000/svg">
<path d="M19 7.5C19 8.69347 18.5259 9.83807 17.682 10.682C16.8381 11.5259 15.6935 12 14.5 12C13.3065 12 12.1619 11.5259 11.318 10.682C10.4741 9.83807 10 8.69347 10 7.5C10 6.30653 10.4741 5.16193 11.318 4.31802C12.1619 3.47411 13.3065 3 14.5 3C15.6935 3 16.8381 3.47411 17.682 4.31802C18.5259 5.16193 19 6.30653 19 7.5V7.5ZM15 5.5C15 5.36739 14.9473 5.24021 14.8536 5.14645C14.7598 5.05268 14.6326 5 14.5 5C14.3674 5 14.2402 5.05268 14.1464 5.14645C14.0527 5.24021 14 5.36739 14 5.5V7H12.5C12.3674 7 12.2402 7.05268 12.1464 7.14645C12.0527 7.24021 12 7.36739 12 7.5C12 7.63261 12.0527 7.75979 12.1464 7.85355C12.2402 7.94732 12.3674 8 12.5 8H14V9.5C14 9.63261 14.0527 9.75979 14.1464 9.85355C14.2402 9.94732 14.3674 10 14.5 10C14.6326 10 14.7598 9.94732 14.8536 9.85355C14.9473 9.75979 15 9.63261 15 9.5V8H16.5C16.6326 8 16.7598 7.94732 16.8536 7.85355C16.9473 7.75979 17 7.63261 17 7.5C17 7.36739 16.9473 7.24021 16.8536 7.14645C16.7598 7.05268 16.6326 7 16.5 7H15V5.5ZM15 18.518V12.978C15.3383 12.9474 15.6731 12.8855 16 12.793V19.5C15.9999 19.5922 15.9744 19.6826 15.9261 19.7611C15.8779 19.8397 15.8089 19.9034 15.7267 19.9452C15.6446 19.987 15.5525 20.0053 15.4606 19.998C15.3687 19.9907 15.2806 19.9582 15.206 19.904L10 16.118L4.794 19.904C4.71943 19.9582 4.63133 19.9907 4.53944 19.998C4.44754 20.0053 4.35542 19.987 4.27326 19.9452C4.19109 19.9034 4.12209 19.8397 4.07387 19.7611C4.02564 19.6826 4.00008 19.5922 4 19.5V6.5C4 5.83696 4.26339 5.20107 4.73223 4.73223C5.20107 4.26339 5.83696 4 6.5 4H10.257C10.0023 4.30847 9.78201 4.64378 9.6 5H6.5C6.10218 5 5.72064 5.15804 5.43934 5.43934C5.15804 5.72064 5 6.10218 5 6.5V18.518L9.706 15.096C9.79144 15.0339 9.89437 15.0004 10 15.0004C10.1056 15.0004 10.2086 15.0339 10.294 15.096L15 18.518Z" fill="black"/>
</svg>
