<svg width="16" height="20" viewBox="0 0 16 20" fill="none" xmlns="http://www.w3.org/2000/svg">
<path d="M0.210449 2.5V19.375C0.21037 19.4835 0.238555 19.5902 0.29223 19.6845C0.345905 19.7789 0.42322 19.8576 0.516564 19.913C0.609908 19.9684 0.716063 19.9985 0.82458 20.0004C0.933098 20.0022 1.04024 19.9758 1.13545 19.9238L7.71045 16.3363L14.2854 19.9238C14.3807 19.9758 14.4878 20.0022 14.5963 20.0004C14.7048 19.9985 14.811 19.9684 14.9043 19.913C14.9977 19.8576 15.075 19.7789 15.1287 19.6845C15.1823 19.5902 15.2105 19.4835 15.2104 19.375V2.5C15.2104 1.83696 14.9471 1.20107 14.4782 0.732233C14.0094 0.263392 13.3735 0 12.7104 0L2.71045 0C2.04741 0 1.41152 0.263392 0.942682 0.732233C0.473841 1.20107 0.210449 1.83696 0.210449 2.5V2.5Z" fill="black"/>
</svg>
