<svg width="123" height="48" viewBox="0 0 123 48" fill="none" xmlns="http://www.w3.org/2000/svg">
<path d="M1.8 14.008H8.328C8.888 14.008 9.48 14.072 10.104 14.2C10.728 14.328 11.344 14.536 11.952 14.824C12.576 15.096 13.168 15.456 13.728 15.904C14.304 16.352 14.808 16.896 15.24 17.536C15.672 18.16 16.016 18.888 16.272 19.72C16.528 20.536 16.656 21.464 16.656 22.504C16.656 23.544 16.528 24.48 16.272 25.312C16.016 26.128 15.672 26.856 15.24 27.496C14.808 28.12 14.304 28.656 13.728 29.104C13.168 29.552 12.576 29.92 11.952 30.208C11.344 30.48 10.728 30.68 10.104 30.808C9.48 30.936 8.888 31 8.328 31H1.8V14.008ZM3.816 29.128H7.656C8.632 29.128 9.536 29 10.368 28.744C11.2 28.488 11.92 28.096 12.528 27.568C13.136 27.024 13.616 26.336 13.968 25.504C14.32 24.672 14.496 23.672 14.496 22.504C14.496 21.336 14.32 20.336 13.968 19.504C13.616 18.672 13.136 17.992 12.528 17.464C11.92 16.92 11.2 16.52 10.368 16.264C9.536 16.008 8.632 15.88 7.656 15.88H3.816V29.128ZM20.8611 14.008H22.8771V31H20.8611V14.008ZM66.2539 14.008H68.7979L78.6379 28.12H78.6859V14.008H80.7019V31H78.1579L68.3179 16.888H68.2699V31H66.2539V14.008ZM85.8936 14.008H96.5736V15.88H87.9096V21.208H95.9976V23.08H87.9096V29.128H97.0056V31H85.8936V14.008Z" fill="white"/>
<path d="M45.012 36.648C43.068 36.648 41.28 36.312 39.648 35.64C38.04 34.968 36.636 34.044 35.436 32.868C34.26 31.668 33.336 30.252 32.664 28.62C32.016 26.964 31.692 25.176 31.692 23.256C31.692 21.336 32.016 19.56 32.664 17.928C33.336 16.272 34.26 14.856 35.436 13.68C36.636 12.48 38.04 11.544 39.648 10.872C41.28 10.2 43.068 9.864 45.012 9.864C46.956 9.864 48.732 10.2 50.34 10.872C51.972 11.544 53.376 12.48 54.552 13.68C55.752 14.856 56.676 16.272 57.324 17.928C57.996 19.56 58.332 21.336 58.332 23.256C58.332 25.176 57.996 26.964 57.324 28.62C56.676 30.252 55.752 31.668 54.552 32.868C53.376 34.044 51.972 34.968 50.34 35.64C48.732 36.312 46.956 36.648 45.012 36.648ZM45.012 33.84C46.5 33.84 47.856 33.564 49.08 33.012C50.328 32.46 51.396 31.704 52.284 30.744C53.172 29.784 53.856 28.668 54.336 27.396C54.84 26.1 55.092 24.72 55.092 23.256C55.092 21.792 54.84 20.424 54.336 19.152C53.856 17.856 53.172 16.728 52.284 15.768C51.396 14.808 50.328 14.052 49.08 13.5C47.856 12.948 46.5 12.672 45.012 12.672C43.524 12.672 42.156 12.948 40.908 13.5C39.684 14.052 38.628 14.808 37.74 15.768C36.852 16.728 36.156 17.856 35.652 19.152C35.172 20.424 34.932 21.792 34.932 23.256C34.932 24.72 35.172 26.1 35.652 27.396C36.156 28.668 36.852 29.784 37.74 30.744C38.628 31.704 39.684 32.46 40.908 33.012C42.156 33.564 43.524 33.84 45.012 33.84Z" fill="#F5BB52"/>
<path d="M39.648 35.64L38.8768 37.4854L38.8865 37.4894L39.648 35.64ZM35.436 32.868L34.0076 34.2679L34.0217 34.2823L34.0361 34.2964L35.436 32.868ZM32.664 28.62L30.8015 29.3488L30.8079 29.3652L30.8146 29.3815L32.664 28.62ZM32.664 17.928L30.8108 17.176L30.8079 17.1829L30.8052 17.1899L32.664 17.928ZM35.436 13.68L36.8502 15.0942L36.8502 15.0942L35.436 13.68ZM39.648 10.872L38.8865 9.02262L38.8768 9.02666L39.648 10.872ZM50.34 10.872L49.5688 12.7174L49.5785 12.7214L50.34 10.872ZM54.552 13.68L53.1236 15.0799L53.1377 15.0943L53.1521 15.1084L54.552 13.68ZM57.324 17.928L55.4615 18.6568L55.4679 18.6732L55.4746 18.6895L57.324 17.928ZM57.324 28.62L55.4708 27.868L55.4679 27.8749L55.4652 27.8819L57.324 28.62ZM54.552 32.868L55.9662 34.2822L55.9662 34.2822L54.552 32.868ZM50.34 35.64L49.5785 33.7906L49.5688 33.7947L50.34 35.64ZM49.08 33.012L48.271 31.1829L48.2644 31.1859L48.2578 31.1888L49.08 33.012ZM52.284 30.744L50.8158 29.3859L50.8158 29.3859L52.284 30.744ZM54.336 27.396L52.472 26.6711L52.4683 26.6805L52.4648 26.6899L54.336 27.396ZM54.336 19.152L52.4605 19.8466L52.4683 19.8678L52.4766 19.8887L54.336 19.152ZM49.08 13.5L48.2578 15.3232L48.2644 15.3261L48.271 15.3291L49.08 13.5ZM40.908 13.5L40.099 11.6709L40.0924 11.6739L40.0858 11.6768L40.908 13.5ZM35.652 19.152L33.788 18.4271L33.7843 18.4365L33.7808 18.4459L35.652 19.152ZM35.652 27.396L33.7765 28.0906L33.7843 28.1118L33.7926 28.1327L35.652 27.396ZM37.74 30.744L39.2082 29.3859L39.2082 29.3859L37.74 30.744ZM40.908 33.012L40.0858 34.8352L40.0924 34.8381L40.099 34.8411L40.908 33.012ZM45.012 34.648C43.3026 34.648 41.7765 34.3535 40.4095 33.7906L38.8865 37.4894C40.7835 38.2705 42.8334 38.648 45.012 38.648V34.648ZM40.4192 33.7947C39.0364 33.2168 37.8479 32.4314 36.8359 31.4396L34.0361 34.2964C35.4241 35.6566 37.0436 36.7192 38.8768 37.4853L40.4192 33.7947ZM36.8644 31.4681C35.8775 30.4611 35.0924 29.2648 34.5134 27.8585L30.8146 29.3815C31.5796 31.2392 32.6425 32.8749 34.0076 34.2679L36.8644 31.4681ZM34.5265 27.8912C33.9764 26.4854 33.692 24.9466 33.692 23.256H29.692C29.692 25.4054 30.0556 27.4426 30.8015 29.3488L34.5265 27.8912ZM33.692 23.256C33.692 21.565 33.9765 20.0421 34.5228 18.6661L30.8052 17.1899C30.0555 19.0779 29.692 21.107 29.692 23.256H33.692ZM34.5172 18.68C35.0962 17.2532 35.8771 16.0673 36.8502 15.0942L34.0218 12.2658C32.6429 13.6447 31.5758 15.2908 30.8108 17.176L34.5172 18.68ZM36.8502 15.0942C37.861 14.0834 39.0449 13.2916 40.4192 12.7173L38.8768 9.02666C37.0351 9.79635 35.411 10.8766 34.0218 12.2658L36.8502 15.0942ZM40.4095 12.7214C41.7765 12.1585 43.3026 11.864 45.012 11.864V7.864C42.8334 7.864 40.7835 8.24153 38.8865 9.02264L40.4095 12.7214ZM45.012 11.864C46.7218 11.864 48.2318 12.1586 49.5688 12.7173L51.1112 9.02666C49.2322 8.2414 47.1902 7.864 45.012 7.864V11.864ZM49.5785 12.7214C50.9729 13.2955 52.1467 14.083 53.1236 15.0799L55.9804 12.2801C54.6053 10.877 52.9711 9.79247 51.1015 9.02264L49.5785 12.7214ZM53.1521 15.1084C54.1385 16.0751 54.9104 17.2484 55.4615 18.6568L59.1865 17.1992C58.4416 15.2956 57.3655 13.6369 55.9519 12.2516L53.1521 15.1084ZM55.4746 18.6895C56.0387 20.0595 56.332 21.5741 56.332 23.256H60.332C60.332 21.0979 59.9533 19.0605 59.1734 17.1665L55.4746 18.6895ZM56.332 23.256C56.332 24.9375 56.0388 26.4681 55.4708 27.868L59.1772 29.372C59.9532 27.4599 60.332 25.4145 60.332 23.256H56.332ZM55.4652 27.8819C54.9142 29.2696 54.1383 30.4532 53.1378 31.4538L55.9662 34.2822C57.3657 32.8828 58.4378 31.2344 59.1828 29.3581L55.4652 27.8819ZM53.1378 31.4538C52.1598 32.4318 50.9815 33.2129 49.5785 33.7906L51.1015 37.4894C52.9625 36.7231 54.5922 35.6562 55.9662 34.2822L53.1378 31.4538ZM49.5688 33.7947C48.2318 34.3534 46.7218 34.648 45.012 34.648V38.648C47.1902 38.648 49.2322 38.2706 51.1112 37.4853L49.5688 33.7947ZM45.012 35.84C46.7526 35.84 48.393 35.5158 49.9022 34.8352L48.2578 31.1888C47.319 31.6122 46.2474 31.84 45.012 31.84V35.84ZM49.889 34.8411C51.3755 34.1836 52.6708 33.2711 53.7522 32.1021L50.8158 29.3859C50.1212 30.1369 49.2805 30.7364 48.271 31.1829L49.889 34.8411ZM53.7522 32.1021C54.8222 30.9453 55.6398 29.6057 56.2072 28.1021L52.4648 26.6899C52.0722 27.7303 51.5218 28.6227 50.8158 29.3859L53.7522 32.1021ZM56.2 28.1209C56.7986 26.5817 57.092 24.9547 57.092 23.256H53.092C53.092 24.4853 52.8814 25.6183 52.472 26.6711L56.2 28.1209ZM57.092 23.256C57.092 21.5576 56.7986 19.9378 56.1954 18.4153L52.4766 19.8887C52.8814 20.9102 53.092 22.0264 53.092 23.256H57.092ZM56.2115 18.4574C55.6457 16.9298 54.8281 15.573 53.7522 14.4099L50.8158 17.1261C51.5159 17.883 52.0663 18.7822 52.4605 19.8466L56.2115 18.4574ZM53.7522 14.4099C52.6708 13.2409 51.3755 12.3284 49.889 11.6709L48.271 15.3291C49.2805 15.7756 50.1212 16.3751 50.8158 17.1261L53.7522 14.4099ZM49.9022 11.6768C48.393 10.9962 46.7526 10.672 45.012 10.672V14.672C46.2474 14.672 47.319 14.8998 48.2578 15.3232L49.9022 11.6768ZM45.012 10.672C43.2708 10.672 41.6241 10.9964 40.099 11.6709L41.717 15.3291C42.6879 14.8996 43.7772 14.672 45.012 14.672V10.672ZM40.0858 11.6768C38.6242 12.336 37.3467 13.2478 36.2718 14.4099L39.2082 17.1261C39.9093 16.3681 40.7438 15.768 41.7302 15.3232L40.0858 11.6768ZM36.2718 14.4099C35.2027 15.5657 34.3772 16.912 33.788 18.4271L37.516 19.8769C37.9348 18.8 38.5013 17.8903 39.2082 17.1261L36.2718 14.4099ZM33.7808 18.4459C33.2093 19.9604 32.932 21.5694 32.932 23.256H36.932C36.932 22.0146 37.1347 20.8876 37.5232 19.8581L33.7808 18.4459ZM32.932 23.256C32.932 24.9429 33.2094 26.5594 33.7765 28.0906L37.5275 26.7014C37.1346 25.6406 36.932 24.4971 36.932 23.256H32.932ZM33.7926 28.1327C34.3833 29.6234 35.2085 30.9526 36.2718 32.1021L39.2082 29.3859C38.4955 28.6154 37.9287 27.7126 37.5114 26.6593L33.7926 28.1327ZM36.2718 32.1021C37.3467 33.2641 38.6242 34.176 40.0858 34.8352L41.7302 31.1888C40.7438 30.744 39.9093 30.1439 39.2082 29.3859L36.2718 32.1021ZM40.099 34.8411C41.6241 35.5156 43.2708 35.84 45.012 35.84V31.84C43.7772 31.84 42.6879 31.6124 41.717 31.1829L40.099 34.8411Z" fill="#F5BB52"/>
</svg>
